<svg xmlns="http://www.w3.org/2000/svg" width="24.021" height="16.215" viewBox="0 0 24.021 16.215">
  <path id="email_icon" d="M.072,18.846V5.5q0-.023.069-.44l7.852,6.717L.165,19.31a1.963,1.963,0,0,1-.093-.463ZM1.114,4.137a1,1,0,0,1,.394-.069H22.657a1.312,1.312,0,0,1,.417.069L15.2,10.878l-1.042.834L12.094,13.4l-2.062-1.691L8.99,10.878Zm.023,16.076,7.9-7.575,3.058,2.479,3.058-2.479,7.9,7.575a1.112,1.112,0,0,1-.394.069H1.508a1.049,1.049,0,0,1-.371-.069Zm15.056-8.432,7.829-6.717a1.383,1.383,0,0,1,.069.44V18.846a1.775,1.775,0,0,1-.069.463Z" transform="translate(-0.072 -4.068)" fill="#707070"/>
</svg>
