<svg xmlns="http://www.w3.org/2000/svg" width="21.253" height="17.003" viewBox="0 0 21.253 17.003">
  <path id="Icon_awesome-eye-slash" data-name="Icon awesome-eye-slash" d="M10.627,13.283a4.764,4.764,0,0,1-4.745-4.42L2.4,6.171A11.068,11.068,0,0,0,1.178,8.017a1.074,1.074,0,0,0,0,.969,10.651,10.651,0,0,0,9.448,5.891,10.315,10.315,0,0,0,2.587-.347L11.49,13.2a4.786,4.786,0,0,1-.863.087Zm10.421,1.929-3.671-2.837a11,11,0,0,0,2.7-3.39,1.074,1.074,0,0,0,0-.969,10.651,10.651,0,0,0-9.448-5.891A10.233,10.233,0,0,0,5.734,3.377L1.51.112A.531.531,0,0,0,.764.205l-.652.839a.531.531,0,0,0,.093.746l19.538,15.1a.531.531,0,0,0,.746-.093l.652-.839a.531.531,0,0,0-.094-.746Zm-6.1-4.716L13.642,9.488A3.147,3.147,0,0,0,9.786,5.439a1.582,1.582,0,0,1,.309.937,1.549,1.549,0,0,1-.051.332L7.6,4.819a4.726,4.726,0,0,1,3.027-1.1A4.779,4.779,0,0,1,15.409,8.5a4.669,4.669,0,0,1-.462,2Z" transform="translate(0 0)" fill="#707070"/>
</svg>
