<svg xmlns="http://www.w3.org/2000/svg" width="15.292" height="20.071" viewBox="0 0 15.292 20.071">
  <path id="Icon_material-lock-outline" data-name="Icon material-lock-outline" d="M13.646,16.792a1.912,1.912,0,1,0-1.912-1.912A1.917,1.917,0,0,0,13.646,16.792Zm5.735-8.6h-.956V6.279a4.779,4.779,0,0,0-9.558,0V8.19H7.912A1.917,1.917,0,0,0,6,10.1v9.558a1.917,1.917,0,0,0,1.912,1.912H19.381a1.917,1.917,0,0,0,1.912-1.912V10.1A1.917,1.917,0,0,0,19.381,8.19Zm-8.7-1.912a2.963,2.963,0,0,1,5.926,0V8.19H10.683Zm8.7,13.381H7.912V10.1H19.381Z" transform="translate(-6 -1.5)" fill="#707070"/>
</svg>
