<svg xmlns="http://www.w3.org/2000/svg" width="25.577" height="25.577" viewBox="0 0 25.577 25.577">
  <path id="user_black_icon" d="M12.788.563A12.788,12.788,0,1,0,25.577,13.351,12.786,12.786,0,0,0,12.788.563Zm0,4.95a4.538,4.538,0,1,1-4.538,4.538A4.538,4.538,0,0,1,12.788,5.513Zm0,17.739a9.881,9.881,0,0,1-7.554-3.517,5.749,5.749,0,0,1,5.079-3.084,1.262,1.262,0,0,1,.366.057,6.827,6.827,0,0,0,2.109.356,6.8,6.8,0,0,0,2.109-.356,1.262,1.262,0,0,1,.366-.057,5.749,5.749,0,0,1,5.079,3.084A9.881,9.881,0,0,1,12.788,23.251Z" transform="translate(0 -0.563)" fill="#707070"/>
</svg>
